<svg width="323" height="165" viewBox="0 0 323 165" fill="none" xmlns="http://www.w3.org/2000/svg">
<path d="M92.1987 56.3534L71.7098 20.8673C71.2283 20.0325 70.5352 19.3393 69.7005 18.8576C68.8657 18.3759 67.9188 18.1227 66.955 18.1235H25.9774C25.0142 18.123 24.0679 18.3763 23.2338 18.858C22.3997 19.3398 21.7074 20.0328 21.2265 20.8673L0.737669 56.3534C0.254469 57.1871 0 58.1336 0 59.0972C0 60.0608 0.254469 61.0073 0.737669 61.841L21.2265 97.3311C21.708 98.1651 22.4005 98.8576 23.2344 99.3393C24.0684 99.8209 25.0143 100.075 25.9774 100.075H66.955C67.9186 100.075 68.8653 99.8214 69.6999 99.3397C70.5345 98.8581 71.2277 98.1654 71.7098 97.3311L92.1987 61.841C92.6799 61.0066 92.9332 60.0604 92.9332 59.0972C92.9332 58.134 92.6799 57.1878 92.1987 56.3534V56.3534ZM78.3085 61.841L64.7886 85.2568C64.3081 86.0923 63.6161 86.7865 62.7821 87.2695C61.9481 87.7526 61.0016 88.0075 60.0378 88.0085H33.0021C32.0391 88.0083 31.0931 87.7546 30.2592 87.273C29.4252 86.7913 28.7327 86.0988 28.2512 85.2648L14.7354 61.841C14.2541 61.0066 14.0008 60.0604 14.0008 59.0972C14.0008 58.134 14.2541 57.1878 14.7354 56.3534L28.2512 32.9416C28.7327 32.1076 29.4252 31.415 30.2592 30.9334C31.0931 30.4518 32.0391 30.1981 33.0021 30.1978H60.0378C61.0008 30.1981 61.9468 30.4518 62.7807 30.9334C63.6146 31.415 64.3071 32.1076 64.7886 32.9416L78.3085 56.3534C78.7897 57.1878 79.043 58.134 79.043 59.0972C79.043 60.0604 78.7897 61.0066 78.3085 61.841V61.841Z" fill="#98AEBA"/>
<path d="M124.773 38.2299L104.284 2.74379C103.802 1.9098 103.11 1.2172 102.276 0.735578C101.442 0.253955 100.496 0.000267685 99.533 0L58.5394 0C57.5785 0.00276184 56.6351 0.257611 55.8035 0.739088C54.972 1.22057 54.2813 1.91182 53.8005 2.74379L33.3116 38.2299C32.8304 39.065 32.5771 40.0118 32.5771 40.9756C32.5771 41.9395 32.8304 42.8863 33.3116 43.7214L53.8005 79.2075C54.2807 80.04 54.9712 80.7317 55.8029 81.2133C56.6346 81.6948 57.5783 81.9493 58.5394 81.9513H99.517C100.48 81.9518 101.426 81.6985 102.261 81.2168C103.095 80.7351 103.787 80.042 104.268 79.2075L124.757 43.7214C125.24 42.8877 125.496 41.9416 125.499 40.9778C125.502 40.014 125.251 39.0664 124.773 38.2299ZM110.882 43.7214L97.3666 67.1332C96.8844 67.9676 96.1912 68.6603 95.3566 69.1419C94.522 69.6235 93.5754 69.8771 92.6118 69.877H65.5761C64.6131 69.8768 63.6671 69.6231 62.8331 69.1415C61.9992 68.6598 61.3067 67.9672 60.8252 67.1332L47.3054 43.7214C46.8242 42.8863 46.5709 41.9395 46.5709 40.9756C46.5709 40.0118 46.8242 39.065 47.3054 38.2299L60.8451 14.8181C61.3266 13.9841 62.0191 13.2915 62.8531 12.8098C63.687 12.3282 64.633 12.0745 65.596 12.0743H92.6317C93.5953 12.0742 94.5419 12.3278 95.3765 12.8094C96.2112 13.291 96.9044 13.9838 97.3865 14.8181L110.882 38.2299C111.364 39.065 111.617 40.0118 111.617 40.9756C111.617 41.9395 111.364 42.8863 110.882 43.7214Z" fill="#037394"/>
<path d="M115.829 145.448C112.961 145.448 110.39 144.907 108.117 143.825C105.844 142.688 104.031 141.173 102.678 139.279C101.326 137.385 100.649 135.274 100.649 132.947C100.649 129.105 102.191 126.074 105.276 123.855C108.415 121.637 112.528 120.121 117.615 119.31L128.249 117.767V116.306C128.249 114.195 127.762 112.572 126.788 111.435C125.814 110.299 124.109 109.731 121.674 109.731C119.888 109.731 118.454 110.082 117.372 110.786C116.289 111.489 115.45 112.409 114.855 113.546C114.422 114.249 113.8 114.601 112.988 114.601H105.276C104.681 114.601 104.221 114.439 103.896 114.114C103.571 113.735 103.436 113.302 103.49 112.815C103.49 111.895 103.842 110.813 104.546 109.568C105.249 108.324 106.331 107.106 107.793 105.915C109.254 104.671 111.121 103.642 113.394 102.831C115.667 102.019 118.454 101.613 121.755 101.613C125.165 101.613 128.087 102.019 130.522 102.831C132.957 103.642 134.906 104.779 136.367 106.24C137.828 107.701 138.91 109.406 139.614 111.354C140.318 113.248 140.669 115.305 140.669 117.524V142.607C140.669 143.203 140.48 143.69 140.101 144.068C139.722 144.447 139.235 144.637 138.64 144.637H130.685C130.143 144.637 129.683 144.447 129.305 144.068C128.926 143.69 128.736 143.203 128.736 142.607V139.604C128.033 140.632 127.086 141.606 125.895 142.526C124.705 143.392 123.27 144.096 121.593 144.637C119.969 145.178 118.048 145.448 115.829 145.448ZM119.076 137.006C120.862 137.006 122.459 136.627 123.866 135.87C125.273 135.112 126.382 133.948 127.194 132.379C128.006 130.81 128.412 128.834 128.412 126.453V125.073L120.862 126.291C117.94 126.778 115.802 127.508 114.449 128.482C113.096 129.457 112.42 130.647 112.42 132.054C112.42 133.083 112.717 133.975 113.313 134.733C113.962 135.491 114.801 136.059 115.829 136.438C116.857 136.817 117.94 137.006 119.076 137.006ZM157.398 160.06C156.803 160.06 156.316 159.871 155.937 159.492C155.558 159.113 155.369 158.626 155.369 158.031V104.454C155.369 103.859 155.558 103.372 155.937 102.993C156.316 102.614 156.803 102.425 157.398 102.425H165.11C165.705 102.425 166.192 102.614 166.571 102.993C166.95 103.372 167.139 103.859 167.139 104.454V107.539C168.438 105.807 170.116 104.4 172.172 103.318C174.229 102.181 176.799 101.613 179.884 101.613C182.698 101.613 185.134 102.073 187.19 102.993C189.301 103.859 191.059 105.131 192.467 106.808C193.928 108.432 195.037 110.407 195.795 112.734C196.607 115.061 197.067 117.686 197.175 120.608C197.229 121.637 197.256 122.611 197.256 123.531C197.256 124.451 197.229 125.452 197.175 126.534C197.121 129.294 196.688 131.838 195.876 134.165C195.118 136.492 194.009 138.494 192.548 140.172C191.087 141.85 189.301 143.148 187.19 144.068C185.134 144.988 182.698 145.448 179.884 145.448C177.124 145.448 174.716 144.961 172.659 143.987C170.657 142.959 169.006 141.579 167.708 139.847V158.031C167.708 158.626 167.518 159.113 167.139 159.492C166.761 159.871 166.301 160.06 165.759 160.06H157.398ZM176.231 135.707C178.288 135.707 179.911 135.274 181.102 134.408C182.292 133.488 183.131 132.298 183.618 130.837C184.159 129.375 184.484 127.779 184.592 126.047C184.701 124.37 184.701 122.692 184.592 121.014C184.484 119.282 184.159 117.686 183.618 116.225C183.131 114.764 182.292 113.6 181.102 112.734C179.911 111.814 178.288 111.354 176.231 111.354C174.229 111.354 172.605 111.814 171.361 112.734C170.116 113.654 169.223 114.818 168.682 116.225C168.141 117.632 167.816 119.147 167.708 120.771C167.653 121.745 167.626 122.746 167.626 123.774C167.626 124.802 167.653 125.831 167.708 126.859C167.762 128.374 168.086 129.808 168.682 131.161C169.331 132.46 170.251 133.543 171.442 134.408C172.686 135.274 174.283 135.707 176.231 135.707ZM212.685 144.637C212.144 144.637 211.684 144.447 211.305 144.068C210.927 143.69 210.737 143.203 210.737 142.607V104.454C210.737 103.859 210.927 103.372 211.305 102.993C211.684 102.614 212.144 102.425 212.685 102.425H220.803C221.398 102.425 221.885 102.614 222.264 102.993C222.643 103.372 222.832 103.859 222.832 104.454V142.607C222.832 143.203 222.643 143.69 222.264 144.068C221.885 144.447 221.398 144.637 220.803 144.637H212.685ZM212.442 95.9305C211.901 95.9305 211.441 95.7411 211.062 95.3623C210.683 94.9835 210.494 94.4964 210.494 93.9011V87.4069C210.494 86.8116 210.683 86.3246 211.062 85.9458C211.441 85.5128 211.901 85.2963 212.442 85.2963H220.965C221.561 85.2963 222.048 85.5128 222.427 85.9458C222.86 86.3246 223.076 86.8116 223.076 87.4069V93.9011C223.076 94.4964 222.86 94.9835 222.427 95.3623C222.048 95.7411 221.561 95.9305 220.965 95.9305H212.442ZM258.178 144.637C254.823 144.637 251.954 144.096 249.573 143.013C247.192 141.877 245.379 140.145 244.134 137.818C242.944 135.491 242.349 132.568 242.349 129.051V112.004H236.017C235.421 112.004 234.934 111.814 234.556 111.435C234.177 111.057 233.987 110.569 233.987 109.974V104.454C233.987 103.859 234.177 103.372 234.556 102.993C234.934 102.614 235.421 102.425 236.017 102.425H242.349V89.0305C242.349 88.4352 242.538 87.9481 242.917 87.5693C243.35 87.1905 243.837 87.0011 244.378 87.0011H252.333C252.929 87.0011 253.416 87.1905 253.794 87.5693C254.173 87.9481 254.363 88.4352 254.363 89.0305V102.425H264.51C265.051 102.425 265.511 102.614 265.89 102.993C266.269 103.372 266.458 103.859 266.458 104.454V109.974C266.458 110.569 266.269 111.057 265.89 111.435C265.511 111.814 265.051 112.004 264.51 112.004H254.363V128.077C254.363 130.133 254.714 131.757 255.418 132.947C256.176 134.084 257.475 134.652 259.315 134.652H265.24C265.782 134.652 266.242 134.841 266.62 135.22C266.999 135.599 267.189 136.059 267.189 136.6V142.607C267.189 143.203 266.999 143.69 266.62 144.068C266.242 144.447 265.782 144.637 265.24 144.637H258.178ZM297.974 145.448C291.751 145.448 286.799 143.717 283.119 140.253C279.493 136.79 277.572 131.757 277.355 125.154C277.355 124.721 277.355 124.153 277.355 123.45C277.355 122.692 277.355 122.097 277.355 121.664C277.572 117.497 278.519 113.925 280.197 110.948C281.874 107.918 284.228 105.618 287.259 104.048C290.29 102.425 293.834 101.613 297.893 101.613C302.439 101.613 306.227 102.56 309.258 104.454C312.343 106.294 314.643 108.838 316.158 112.085C317.727 115.278 318.512 118.958 318.512 123.125V124.992C318.512 125.533 318.296 125.993 317.863 126.372C317.484 126.751 317.024 126.94 316.483 126.94H289.938C289.938 126.994 289.938 127.102 289.938 127.265C289.938 127.373 289.938 127.481 289.938 127.59C289.992 129.321 290.317 130.918 290.912 132.379C291.561 133.786 292.454 134.923 293.591 135.788C294.781 136.654 296.189 137.087 297.812 137.087C299.165 137.087 300.274 136.898 301.14 136.519C302.006 136.14 302.71 135.68 303.251 135.139C303.846 134.598 304.279 134.138 304.55 133.759C305.037 133.218 305.416 132.893 305.686 132.785C306.011 132.623 306.498 132.541 307.147 132.541H315.59C316.131 132.541 316.564 132.704 316.889 133.028C317.267 133.299 317.43 133.705 317.376 134.246C317.322 135.112 316.862 136.194 315.996 137.493C315.184 138.738 313.966 139.983 312.343 141.227C310.719 142.418 308.69 143.419 306.254 144.231C303.873 145.043 301.113 145.448 297.974 145.448ZM289.938 119.553H305.849V119.391C305.849 117.442 305.524 115.765 304.874 114.358C304.279 112.897 303.386 111.76 302.196 110.948C301.005 110.137 299.571 109.731 297.893 109.731C296.216 109.731 294.781 110.137 293.591 110.948C292.4 111.76 291.48 112.897 290.831 114.358C290.236 115.765 289.938 117.442 289.938 119.391V119.553Z" fill="#037394"/>
<path d="M65.0079 18.1235H27.9209V30.1859H65.0079V18.1235Z" fill="#98AEBA"/>
</svg>
